<?xml version="1.0" encoding="iso-8859-1"?>
<!-- Uploaded to: SVG Repo, www.svgrepo.com, Generator: SVG Repo Mixer Tools -->
<svg fill="#000000" height="800px" width="800px" version="1.1" id="Layer_1" xmlns="http://www.w3.org/2000/svg" xmlns:xlink="http://www.w3.org/1999/xlink" 
	 viewBox="0 0 512 512" xml:space="preserve">
<g>
	<g>
		<g>
			<path d="M271.085,91.582c-0.497-0.497-1.02-0.967-1.563-1.413c-0.246-0.202-0.506-0.378-0.759-0.568
				c-0.304-0.228-0.601-0.463-0.917-0.674c-0.303-0.203-0.618-0.379-0.929-0.564c-0.286-0.171-0.566-0.351-0.861-0.509
				c-0.317-0.169-0.643-0.313-0.966-0.465c-0.308-0.145-0.611-0.299-0.926-0.43c-0.314-0.13-0.635-0.235-0.953-0.349
				c-0.338-0.122-0.672-0.251-1.018-0.356c-0.318-0.096-0.642-0.167-0.963-0.248c-0.353-0.089-0.702-0.188-1.061-0.259
				c-0.372-0.074-0.747-0.117-1.122-0.171c-0.314-0.045-0.623-0.105-0.941-0.136c-1.4-0.138-2.81-0.138-4.21,0
				c-0.318,0.031-0.627,0.091-0.941,0.136c-0.375,0.054-0.75,0.097-1.122,0.171c-0.36,0.071-0.708,0.17-1.061,0.259
				c-0.322,0.081-0.645,0.151-0.963,0.248c-0.346,0.105-0.68,0.234-1.018,0.356c-0.318,0.114-0.639,0.219-0.953,0.349
				c-0.316,0.131-0.618,0.284-0.926,0.43c-0.323,0.152-0.649,0.296-0.966,0.465c-0.295,0.158-0.575,0.338-0.861,0.509
				c-0.311,0.186-0.626,0.361-0.929,0.564c-0.316,0.211-0.613,0.447-0.917,0.674c-0.253,0.19-0.513,0.365-0.759,0.568
				c-0.544,0.446-1.067,0.916-1.563,1.413L91.582,240.915c-8.331,8.331-8.331,21.839,0,30.17s21.839,8.331,30.17,0L234.667,158.17
				v332.497c0,11.782,9.551,21.333,21.333,21.333s21.333-9.551,21.333-21.333V158.17l112.915,112.915
				c8.331,8.331,21.839,8.331,30.17,0s8.331-21.839,0-30.17L271.085,91.582z"/>
			<path d="M106.667,42.667h298.667c11.782,0,21.333-9.551,21.333-21.333C426.667,9.551,417.115,0,405.333,0H106.667
				C94.885,0,85.333,9.551,85.333,21.333C85.333,33.115,94.885,42.667,106.667,42.667z"/>
		</g>
	</g>
</g>
</svg>